<?xml version="1.0" encoding="UTF-8" standalone="no"?>
<!DOCTYPE svg PUBLIC "-//W3C//DTD SVG 1.1//EN" "http://www.w3.org/Graphics/SVG/1.1/DTD/svg11.dtd">
<svg version="1.1" xmlns="http://www.w3.org/2000/svg" xmlns:xlink="http://www.w3.org/1999/xlink" preserveAspectRatio="xMidYMid meet" viewBox="0 0 640 640" width="640" height="640"><defs><path d="M-0.8 639.2L639.2 -0.8L-0.8 639.2Z" id="a8jXshMie"></path><path d="M532.34 212.47L424.68 424.94L319.6 319.6L214.52 214.26L427.26 107.12L640 0L532.34 212.47Z" id="f11Mf79jGX"></path><path d="M211.94 532.07L424.68 424.94L319.6 319.6L214.52 214.26L106.86 426.72L-0.8 639.2L211.94 532.07Z" id="a2eTg7N18w"></path><path d="M429.67 107.13L642.41 0L537.33 -105.34L432.26 -210.68L324.59 1.79L216.93 214.26L429.67 107.13Z" id="c1eiMUyfD9"></path><path d="M637.42 317.82L850.16 210.69L745.08 105.34L640 0L532.34 212.47L424.68 424.94L637.42 317.82Z" id="b2mJ9lVVQ"></path><path d="M317.02 637.41L209.36 849.88L104.28 744.54L-0.8 639.2L211.94 532.07L424.68 424.94L317.02 637.41Z" id="a2iGBZf2bt"></path><path d="M743 423.84L635.78 636.75L529.83 530.53L423.88 424.32L637.05 317.62L850.23 210.93L743 423.84Z" id="a6eLW2Lli"></path><path d="M106.86 427.53L-0.8 640L-105.88 534.66L-210.96 429.32L1.78 322.18L214.52 215.06L106.86 427.53Z" id="a3yAwIgNe"></path><path d="M322.45 2.23L215.22 215.14L109.27 108.92L3.32 2.71L216.49 -103.99L429.67 -210.68L322.45 2.23Z" id="b3ChTcnBHR"></path><path d="M423.25 744.06L636.42 637.37L530.47 531.15L424.52 424.94L317.29 637.84L210.07 850.75L423.25 744.06Z" id="adQVc1xpF"></path><path d="M2.89 322.15L216.5 215.89L109.67 108.8L2.85 1.72L-103.94 215.05L-210.73 428.4L2.89 322.15Z" id="b2h50AKGcY"></path><path d="" id="aw7AZ32VW"></path><path d="M423.88 423.84L214.52 214.25L-0.8 640L639.2 1.35" id="b3f8w9MzV"></path></defs><g><g><g><g><use xlink:href="#a8jXshMie" opacity="1" fill-opacity="0" stroke="#000000" stroke-width="1" stroke-opacity="1"></use></g></g><g><use xlink:href="#f11Mf79jGX" opacity="1" fill="#686868" fill-opacity="1"></use></g><g><use xlink:href="#a2eTg7N18w" opacity="1" fill="#686868" fill-opacity="1"></use></g><g><use xlink:href="#c1eiMUyfD9" opacity="1" fill="#f6f6f6" fill-opacity="1"></use></g><g><use xlink:href="#b2mJ9lVVQ" opacity="1" fill="#636363" fill-opacity="1"></use></g><g><use xlink:href="#a2iGBZf2bt" opacity="1" fill="#272727" fill-opacity="1"></use><g><use xlink:href="#a2iGBZf2bt" opacity="1" fill-opacity="0" stroke="#547978" stroke-width="1" stroke-opacity="1"></use></g></g><g><use xlink:href="#a6eLW2Lli" opacity="1" fill="#7e7e7e" fill-opacity="1"></use></g><g><use xlink:href="#a3yAwIgNe" opacity="1" fill="#7e7e7e" fill-opacity="1"></use></g><g><use xlink:href="#b3ChTcnBHR" opacity="1" fill="#272727" fill-opacity="1"></use></g><g><use xlink:href="#adQVc1xpF" opacity="1" fill="#f6f6f6" fill-opacity="1"></use></g><g><use xlink:href="#b2h50AKGcY" opacity="1" fill="#636363" fill-opacity="1"></use></g><g><g><use xlink:href="#aw7AZ32VW" opacity="1" fill-opacity="0" stroke="#000000" stroke-width="1" stroke-opacity="1"></use></g></g><g><use xlink:href="#b3f8w9MzV" opacity="1" fill="#d4d4d4" fill-opacity="1"></use><g><use xlink:href="#b3f8w9MzV" opacity="1" fill-opacity="0" stroke="#d4d4d4" stroke-width="1" stroke-opacity="1"></use></g></g></g></g></svg>